# xmcd
#
# Track frame offsets:
#	150
#	10984
#	23059
#	35256
#	45390
#	57819
#	70838
#	80591
#
# Disc length: 1177 seconds
#
# Revision: 0
# Processed by: cddbd v1.5.1PL0 Copyright (c) Steve Scherf et al.
# Submitted via: dBpowerAMP V4.0
#
DISCID=58049708
DTITLE=Dolly Parton - Puppy Love
DYEAR=1900
DGENRE=Country
TTITLE0=(It Wasn't God Who Made) Honky Tonk Angels
TTITLE1=Making Believe
TTITLE2=Letter To Heaven
TTITLE3=Release Me
TTITLE4=Two Little Orphans
TTITLE5=Little Blossom
TTITLE6=Girl Left Alone
TTITLE7=Puppy Love
EXTD=rip by Feenix
EXTT0=
EXTT1=
EXTT2=
EXTT3=
EXTT4=
EXTT5=
EXTT6=
EXTT7=
PLAYORDER=
